#define c37cf1661a1d4e689f5391a677368fcfGUwNAJwPoXrUfG9u_width 16
#define c37cf1661a1d4e689f5391a677368fcfGUwNAJwPoXrUfG9u_height 16
static char c37cf1661a1d4e689f5391a677368fcfGUwNAJwPoXrUfG9u_bits[] = {
  0x00, 0x00, 0xE0, 0x07, 0xF8, 0x1F, 0xFC, 0x3F, 0x7C, 0x3E, 0x7E, 0x7E, 
  0x3E, 0x7E, 0x3E, 0x7C, 0x7E, 0x7E, 0xFE, 0x7F, 0xFE, 0x7F, 0xFE, 0x7F, 
  0xFC, 0x3F, 0xF8, 0x1F, 0xF0, 0x0F, 0x80, 0x01, };
